<?xml version="1.0" encoding="iso-8859-1"?>
<!-- Generator: Adobe Illustrator 19.0.0, SVG Export Plug-In . SVG Version: 6.00 Build 0)  -->
<svg version="1.1" id="Layer_1" xmlns="http://www.w3.org/2000/svg" xmlns:xlink="http://www.w3.org/1999/xlink" x="0px" y="0px"
	 viewBox="0 0 511.997 511.997" style="enable-background:new 0 0 511.997 511.997;" xml:space="preserve">
<path style="fill:#BDFDFF;" d="M505.766,114.218l-30.098-30.096l-30.102-30.1c-8.31-8.312-21.787-8.312-30.099,0l-60.199,60.196
	c-3.991,3.991-6.235,9.406-6.235,15.05c0,5.644,2.242,11.057,6.235,15.049l15.05,15.05l-60.199,60.199l15.049,15.049l0.001,0.001
	l15.047,15.047l60.199-60.199l15.049,15.049c4.156,4.156,9.603,6.235,15.049,6.235s10.894-2.079,15.049-6.235l60.199-60.199
	c3.991-3.991,6.235-9.406,6.235-15.049C512.001,123.624,509.758,118.21,505.766,114.218z"/>
<path style="fill:#5286FA;" d="M365.336,274.785c-0.011-0.011-0.021-0.024-0.031-0.034l-25.085-25.085l-15.047-15.047l-0.001-0.001
	l-15.049-15.049l-16.229-16.228l-8.855-8.855c-2.858-2.859-6.331-4.709-9.99-5.602c-6.982-1.703-14.654,0.148-20.109,5.602
	l-3.719,3.717l-72.835,72.835l-25.339,25.339l-20.577,20.575L90.46,358.962c-30.427,30.43-30.425,79.94,0.001,110.367
	c14.738,14.737,34.333,22.853,55.178,22.854c0.003,0,0.004,0,0.006,0c20.841,0,40.438-8.117,55.178-22.854l69.167-69.165
	l15.049-15.049l15.049-15.049l50.166-50.165l15.047-15.049l0.003-0.001c3.991-3.991,6.235-9.404,6.235-15.049
	C371.538,284.171,369.307,278.774,365.336,274.785z"/>
<path style="fill:#3D6DEB;" d="M325.171,234.618l-15.049-15.049l-16.229-16.228l-8.855-8.855c-2.858-2.859-6.331-4.709-9.99-5.602
	c-6.982-1.703-14.654,0.148-20.109,5.602l-3.719,3.717l-72.835,72.835l-25.339,25.339l-20.577,20.575L90.46,358.962
	c-30.427,30.43-30.425,79.94,0.001,110.367L325.171,234.618L325.171,234.618z"/>
<path style="fill:#9BC9FF;" d="M325.173,234.619L475.669,84.122l-30.102-30.1c-8.31-8.312-21.787-8.312-30.099,0l-60.199,60.196
	c-3.991,3.991-6.235,9.406-6.235,15.05c0,5.644,2.242,11.057,6.235,15.049l15.05,15.05l-60.199,60.199L325.173,234.619
	L325.173,234.619z"/>
<g>
	<path style="fill:#ACABB1;" d="M254.308,63.428C209.736,18.854,141.585,7.158,84.733,34.317
		c-6.236,2.978-10.636,8.796-11.804,15.606c-1.168,6.809,1.041,13.762,5.928,18.648l70.105,70.105l-15.049,15.049l-15.052,15.05
		L48.757,98.671c-4.885-4.887-11.851-7.094-18.648-5.928c-6.811,1.168-12.628,5.569-15.606,11.804
		c-27.158,56.856-15.459,125.004,29.111,169.575c24.543,24.543,55.889,39.21,88.857,42.831l20.575-20.575l25.339-25.339l36.42-36.42
		l36.414-36.414l3.719-3.717c5.454-5.454,13.126-7.304,20.109-5.602c3.659,0.892,7.133,2.744,9.99,5.602l8.855,8.855
		C305.961,153.074,291.372,100.493,254.308,63.428z"/>
	<path style="fill:#ACABB1;" d="M449.517,358.971l-84.181-84.184c3.971,3.988,6.202,9.385,6.202,15.015
		c0,5.646-2.242,11.059-6.235,15.049l-0.003,0.001L350.253,319.9l-25.083,25.082l-25.083,25.083l-15.049,15.049l-15.049,15.049
		l69.165,69.167c15.215,15.212,35.197,22.817,55.181,22.817c19.985,0,39.97-7.607,55.184-22.82
		c14.739-14.739,22.856-34.336,22.856-55.182C472.374,393.302,464.257,373.706,449.517,358.971z"/>
</g>
<g>
	<path style="fill:#898890;" d="M118.862,168.775L48.757,98.671c-4.885-4.887-11.851-7.094-18.648-5.928
		c-6.811,1.168-12.628,5.569-15.606,11.804c-27.158,56.856-15.459,125.004,29.111,169.575c24.543,24.543,55.889,39.21,88.857,42.831
		l20.575-20.575l25.339-25.339l36.42-36.42l-80.892-80.892L118.862,168.775z"/>
	<path style="fill:#898890;" d="M300.087,370.067l-15.049,15.049l-15.049,15.049l69.165,69.167
		c15.215,15.212,35.197,22.817,55.181,22.817c19.985,0,39.97-7.607,55.184-22.82L325.173,344.982L300.087,370.067z"/>
</g>
<g>
</g>
<g>
</g>
<g>
</g>
<g>
</g>
<g>
</g>
<g>
</g>
<g>
</g>
<g>
</g>
<g>
</g>
<g>
</g>
<g>
</g>
<g>
</g>
<g>
</g>
<g>
</g>
<g>
</g>
</svg>
